<?xml version="1.0" encoding="UTF-8" standalone="no"?>
<!DOCTYPE svg PUBLIC "-//W3C//DTD SVG 1.1//EN"
 "http://www.w3.org/Graphics/SVG/1.1/DTD/svg11.dtd">
<!-- Generated by graphviz version 2.44.1 (20200629.0846)
 -->
<!-- Title: dependencies Pages: 1 -->
<svg width="1797pt" height="284pt"
 viewBox="0.00 0.00 1797.00 284.00" xmlns="http://www.w3.org/2000/svg" xmlns:xlink="http://www.w3.org/1999/xlink">
<g id="graph0" class="graph" transform="scale(1 1) rotate(0) translate(4 280)">
<title>dependencies</title>
<polygon fill="white" stroke="transparent" points="-4,4 -4,-280 1793,-280 1793,4 -4,4"/>
<text text-anchor="start" x="873.51" y="-42.4" font-family="sans-serif" font-weight="bold" font-size="14.00">Legend</text>
<polygon fill="#ffffb3" stroke="transparent" points="660.5,-10 660.5,-30 680.5,-30 680.5,-10 660.5,-10"/>
<text text-anchor="start" x="684.13" y="-15.4" font-family="sans-serif" font-size="14.00"> &#160;Declarations</text>
<polygon fill="#8dd3c7" stroke="transparent" points="773.5,-10 773.5,-30 793.5,-30 793.5,-10 773.5,-10"/>
<text text-anchor="start" x="797.23" y="-15.4" font-family="sans-serif" font-size="14.00"> &#160;Module</text>
<polygon fill="#80b1d3" stroke="transparent" points="859.5,-10 859.5,-30 879.5,-30 879.5,-10 859.5,-10"/>
<text text-anchor="start" x="883.28" y="-15.4" font-family="sans-serif" font-size="14.00"> &#160;Bootstrap</text>
<polygon fill="#fdb462" stroke="transparent" points="956.5,-10 956.5,-30 976.5,-30 976.5,-10 956.5,-10"/>
<text text-anchor="start" x="980.17" y="-15.4" font-family="sans-serif" font-size="14.00"> &#160;Providers</text>
<polygon fill="#fb8072" stroke="transparent" points="1052.5,-10 1052.5,-30 1072.5,-30 1072.5,-10 1052.5,-10"/>
<text text-anchor="start" x="1076.23" y="-15.4" font-family="sans-serif" font-size="14.00"> &#160;Exports</text>
<g id="clust1" class="cluster">
<title>cluster_AppModule</title>
<polygon fill="none" stroke="black" stroke-dasharray="1,5" points="8,-70 8,-268 1781,-268 1781,-70 8,-70"/>
</g>
<g id="clust15" class="cluster">
<title>cluster_AppModule_bootstrap</title>
<polygon fill="none" stroke="black" points="857,-208 857,-260 981,-260 981,-208 857,-208"/>
</g>
<g id="clust13" class="cluster">
<title>cluster_AppModule_imports</title>
<polygon fill="none" stroke="black" points="1629,-78 1629,-130 1773,-130 1773,-78 1629,-78"/>
</g>
<g id="clust2" class="cluster">
<title>cluster_AppModule_declarations</title>
<polygon fill="none" stroke="black" points="16,-78 16,-130 1621,-130 1621,-78 16,-78"/>
</g>
<!-- AddDeviceComponent -->
<g id="node1" class="node">
<title>AddDeviceComponent</title>
<polygon fill="#ffffb3" stroke="black" points="1612.58,-122 1467.42,-122 1467.42,-86 1612.58,-86 1612.58,-122"/>
<text text-anchor="middle" x="1540" y="-99.8" font-family="Times,serif" font-size="14.00">AddDeviceComponent</text>
</g>
<!-- AppModule -->
<g id="node11" class="node">
<title>AppModule</title>
<polygon fill="#8dd3c7" stroke="black" points="960.66,-187 957.66,-191 936.66,-191 933.66,-187 877.34,-187 877.34,-151 960.66,-151 960.66,-187"/>
<text text-anchor="middle" x="919" y="-164.8" font-family="Times,serif" font-size="14.00">AppModule</text>
</g>
<!-- AddDeviceComponent&#45;&gt;AppModule -->
<g id="edge1" class="edge">
<title>AddDeviceComponent&#45;&gt;AppModule</title>
<path fill="none" stroke="black" d="M1540,-122.28C1540,-143.32 1540,-175 1540,-175 1540,-175 970.71,-175 970.71,-175"/>
<polygon fill="black" stroke="black" points="970.71,-171.5 960.71,-175 970.71,-178.5 970.71,-171.5"/>
</g>
<!-- AppComponent -->
<g id="node2" class="node">
<title>AppComponent</title>
<polygon fill="#ffffb3" stroke="black" points="1449.94,-122 1344.06,-122 1344.06,-86 1449.94,-86 1449.94,-122"/>
<text text-anchor="middle" x="1397" y="-99.8" font-family="Times,serif" font-size="14.00">AppComponent</text>
</g>
<!-- AppComponent&#45;&gt;AppModule -->
<g id="edge2" class="edge">
<title>AppComponent&#45;&gt;AppModule</title>
<path fill="none" stroke="black" d="M1397,-122.11C1397,-141.34 1397,-169 1397,-169 1397,-169 971,-169 971,-169"/>
<polygon fill="black" stroke="black" points="971,-165.5 961,-169 971,-172.5 971,-165.5"/>
</g>
<!-- ChatBotComponent -->
<g id="node3" class="node">
<title>ChatBotComponent</title>
<polygon fill="#ffffb3" stroke="black" points="1326,-122 1198,-122 1198,-86 1326,-86 1326,-122"/>
<text text-anchor="middle" x="1262" y="-99.8" font-family="Times,serif" font-size="14.00">ChatBotComponent</text>
</g>
<!-- ChatBotComponent&#45;&gt;AppModule -->
<g id="edge3" class="edge">
<title>ChatBotComponent&#45;&gt;AppModule</title>
<path fill="none" stroke="black" d="M1262,-122.02C1262,-139.37 1262,-163 1262,-163 1262,-163 970.72,-163 970.72,-163"/>
<polygon fill="black" stroke="black" points="970.72,-159.5 960.72,-163 970.72,-166.5 970.72,-159.5"/>
</g>
<!-- ConfigurationComponent -->
<g id="node4" class="node">
<title>ConfigurationComponent</title>
<polygon fill="#ffffb3" stroke="black" points="1179.88,-122 1020.12,-122 1020.12,-86 1179.88,-86 1179.88,-122"/>
<text text-anchor="middle" x="1100" y="-99.8" font-family="Times,serif" font-size="14.00">ConfigurationComponent</text>
</g>
<!-- ConfigurationComponent&#45;&gt;AppModule -->
<g id="edge4" class="edge">
<title>ConfigurationComponent&#45;&gt;AppModule</title>
<path fill="none" stroke="black" d="M1100,-122.24C1100,-137.57 1100,-157 1100,-157 1100,-157 970.98,-157 970.98,-157"/>
<polygon fill="black" stroke="black" points="970.98,-153.5 960.98,-157 970.98,-160.5 970.98,-153.5"/>
</g>
<!-- CustomerFormComponent -->
<g id="node5" class="node">
<title>CustomerFormComponent</title>
<polygon fill="#ffffb3" stroke="black" points="1002.1,-122 835.9,-122 835.9,-86 1002.1,-86 1002.1,-122"/>
<text text-anchor="middle" x="919" y="-99.8" font-family="Times,serif" font-size="14.00">CustomerFormComponent</text>
</g>
<!-- CustomerFormComponent&#45;&gt;AppModule -->
<g id="edge5" class="edge">
<title>CustomerFormComponent&#45;&gt;AppModule</title>
<path fill="none" stroke="black" d="M919,-122.11C919,-122.11 919,-140.99 919,-140.99"/>
<polygon fill="black" stroke="black" points="915.5,-140.99 919,-150.99 922.5,-140.99 915.5,-140.99"/>
</g>
<!-- DeleteDeviceComponent -->
<g id="node6" class="node">
<title>DeleteDeviceComponent</title>
<polygon fill="#ffffb3" stroke="black" points="817.51,-122 660.49,-122 660.49,-86 817.51,-86 817.51,-122"/>
<text text-anchor="middle" x="739" y="-99.8" font-family="Times,serif" font-size="14.00">DeleteDeviceComponent</text>
</g>
<!-- DeleteDeviceComponent&#45;&gt;AppModule -->
<g id="edge6" class="edge">
<title>DeleteDeviceComponent&#45;&gt;AppModule</title>
<path fill="none" stroke="black" d="M739,-122.24C739,-137.57 739,-157 739,-157 739,-157 867.25,-157 867.25,-157"/>
<polygon fill="black" stroke="black" points="867.25,-160.5 877.25,-157 867.25,-153.5 867.25,-160.5"/>
</g>
<!-- GetProductByIdComponent -->
<g id="node7" class="node">
<title>GetProductByIdComponent</title>
<polygon fill="#ffffb3" stroke="black" points="642.59,-122 469.41,-122 469.41,-86 642.59,-86 642.59,-122"/>
<text text-anchor="middle" x="556" y="-99.8" font-family="Times,serif" font-size="14.00">GetProductByIdComponent</text>
</g>
<!-- GetProductByIdComponent&#45;&gt;AppModule -->
<g id="edge7" class="edge">
<title>GetProductByIdComponent&#45;&gt;AppModule</title>
<path fill="none" stroke="black" d="M556,-122.02C556,-139.37 556,-163 556,-163 556,-163 867,-163 867,-163"/>
<polygon fill="black" stroke="black" points="867,-166.5 877,-163 867,-159.5 867,-166.5"/>
</g>
<!-- HomeComponent -->
<g id="node8" class="node">
<title>HomeComponent</title>
<polygon fill="#ffffb3" stroke="black" points="451.55,-122 336.45,-122 336.45,-86 451.55,-86 451.55,-122"/>
<text text-anchor="middle" x="394" y="-99.8" font-family="Times,serif" font-size="14.00">HomeComponent</text>
</g>
<!-- HomeComponent&#45;&gt;AppModule -->
<g id="edge8" class="edge">
<title>HomeComponent&#45;&gt;AppModule</title>
<path fill="none" stroke="black" d="M394,-122.11C394,-141.34 394,-169 394,-169 394,-169 866.92,-169 866.92,-169"/>
<polygon fill="black" stroke="black" points="866.92,-172.5 876.92,-169 866.92,-165.5 866.92,-172.5"/>
</g>
<!-- LoginComponent -->
<g id="node9" class="node">
<title>LoginComponent</title>
<polygon fill="#ffffb3" stroke="black" points="318.28,-122 203.72,-122 203.72,-86 318.28,-86 318.28,-122"/>
<text text-anchor="middle" x="261" y="-99.8" font-family="Times,serif" font-size="14.00">LoginComponent</text>
</g>
<!-- LoginComponent&#45;&gt;AppModule -->
<g id="edge9" class="edge">
<title>LoginComponent&#45;&gt;AppModule</title>
<path fill="none" stroke="black" d="M261,-122.28C261,-143.32 261,-175 261,-175 261,-175 867.34,-175 867.34,-175"/>
<polygon fill="black" stroke="black" points="867.34,-178.5 877.34,-175 867.34,-171.5 867.34,-178.5"/>
</g>
<!-- UpdateDeviceComponent -->
<g id="node10" class="node">
<title>UpdateDeviceComponent</title>
<polygon fill="#ffffb3" stroke="black" points="185.9,-122 24.1,-122 24.1,-86 185.9,-86 185.9,-122"/>
<text text-anchor="middle" x="105" y="-99.8" font-family="Times,serif" font-size="14.00">UpdateDeviceComponent</text>
</g>
<!-- UpdateDeviceComponent&#45;&gt;AppModule -->
<g id="edge10" class="edge">
<title>UpdateDeviceComponent&#45;&gt;AppModule</title>
<path fill="none" stroke="black" d="M105,-122.25C105,-145.02 105,-181 105,-181 105,-181 867.23,-181 867.23,-181"/>
<polygon fill="black" stroke="black" points="867.23,-184.5 877.23,-181 867.23,-177.5 867.23,-184.5"/>
</g>
<!-- AppComponent  -->
<g id="node13" class="node">
<title>AppComponent </title>
<polygon fill="#80b1d3" stroke="black" points="973.44,-252 864.56,-252 864.56,-216 973.44,-216 973.44,-252"/>
<text text-anchor="middle" x="919" y="-229.8" font-family="Times,serif" font-size="14.00">AppComponent </text>
</g>
<!-- AppModule&#45;&gt;AppComponent  -->
<g id="edge12" class="edge">
<title>AppModule&#45;&gt;AppComponent </title>
<path fill="none" stroke="black" stroke-dasharray="1,5" d="M919,-187.11C919,-187.11 919,-205.99 919,-205.99"/>
<polygon fill="black" stroke="black" points="915.5,-205.99 919,-215.99 922.5,-205.99 915.5,-205.99"/>
</g>
<!-- AppRoutingModule -->
<g id="node12" class="node">
<title>AppRoutingModule</title>
<polygon fill="#8dd3c7" stroke="black" points="1765.27,-122 1762.27,-126 1741.27,-126 1738.27,-122 1636.73,-122 1636.73,-86 1765.27,-86 1765.27,-122"/>
<text text-anchor="middle" x="1701" y="-99.8" font-family="Times,serif" font-size="14.00">AppRoutingModule</text>
</g>
<!-- AppRoutingModule&#45;&gt;AppModule -->
<g id="edge11" class="edge">
<title>AppRoutingModule&#45;&gt;AppModule</title>
<path fill="none" stroke="black" d="M1701,-122.25C1701,-145.02 1701,-181 1701,-181 1701,-181 970.77,-181 970.77,-181"/>
<polygon fill="black" stroke="black" points="970.77,-177.5 960.77,-181 970.77,-184.5 970.77,-177.5"/>
</g>
</g>
</svg>
